<svg xmlns="http://www.w3.org/2000/svg" width="128" height="128" viewBox="0 0 128 128" shape-rendering="crispEdges" role="presentation" aria-hidden="true"><defs><clipPath id="clip"><circle cx="64" cy="64" r="64"/></clipPath></defs><g clip-path="url(#clip)"><rect x="48" y="8" width="8" height="8" fill="#C4882A"/><rect x="72" y="8" width="8" height="8" fill="#C4882A"/><rect x="56" y="16" width="16" height="8" fill="#C4882A"/><rect x="40" y="24" width="48" height="8" fill="#F2C044"/><rect x="32" y="32" width="64" height="8" fill="#F2C044"/><rect x="24" y="40" width="8" height="8" fill="#F2C044"/><rect x="32" y="40" width="16" height="8" fill="#2E2206"/><rect x="48" y="40" width="8" height="8" fill="#FFFBEA"/><rect x="56" y="40" width="16" height="8" fill="#F2C044"/><rect x="72" y="40" width="16" height="8" fill="#2E2206"/><rect x="88" y="40" width="8" height="8" fill="#FFFBEA"/><rect x="96" y="40" width="8" height="8" fill="#F2C044"/><rect x="16" y="48" width="16" height="8" fill="#F2C044"/><rect x="32" y="48" width="24" height="8" fill="#2E2206"/><rect x="56" y="48" width="16" height="8" fill="#F2C044"/><rect x="72" y="48" width="24" height="8" fill="#2E2206"/><rect x="96" y="48" width="16" height="8" fill="#F2C044"/><rect x="16" y="56" width="16" height="8" fill="#F2C044"/><rect x="32" y="56" width="24" height="8" fill="#2E2206"/><rect x="56" y="56" width="16" height="8" fill="#F2C044"/><rect x="72" y="56" width="24" height="8" fill="#2E2206"/><rect x="96" y="56" width="16" height="8" fill="#F2C044"/><rect x="8" y="64" width="112" height="8" fill="#F2C044"/><rect x="8" y="72" width="112" height="8" fill="#F2C044"/><rect x="8" y="80" width="32" height="8" fill="#F2C044"/><rect x="40" y="80" width="8" height="8" fill="#7AA15C"/><rect x="48" y="80" width="16" height="8" fill="#F2C044"/><rect x="64" y="80" width="16" height="8" fill="#AC6643"/><rect x="80" y="80" width="40" height="8" fill="#F2C044"/><rect x="16" y="88" width="8" height="8" fill="#F2C044"/><rect x="24" y="88" width="24" height="8" fill="#7AA15C"/><rect x="48" y="88" width="16" height="8" fill="#AC6643"/><rect x="64" y="88" width="48" height="8" fill="#F2C044"/><rect x="24" y="96" width="16" height="8" fill="#F2C044"/><rect x="88" y="96" width="16" height="8" fill="#F2C044"/></g></svg>