<svg xmlns="http://www.w3.org/2000/svg" width="256" height="256" viewBox="0 0 256 256" shape-rendering="crispEdges" role="presentation" aria-hidden="true"><g><rect x="112" y="16" width="32" height="16" fill="#FFE694"/><rect x="80" y="32" width="96" height="16" fill="#FFE694"/><rect x="64" y="48" width="128" height="16" fill="#FFE694"/><rect x="64" y="64" width="32" height="16" fill="#FFE694"/><rect x="96" y="64" width="16" height="16" fill="#7FA860"/><rect x="112" y="64" width="16" height="16" fill="#FFE694"/><rect x="128" y="64" width="16" height="16" fill="#7FA860"/><rect x="144" y="64" width="16" height="16" fill="#FFE694"/><rect x="160" y="64" width="16" height="16" fill="#7FA860"/><rect x="176" y="64" width="16" height="16" fill="#FFE694"/><rect x="48" y="80" width="16" height="16" fill="#7FA860"/><rect x="64" y="80" width="16" height="16" fill="#FFFBEA"/><rect x="80" y="80" width="32" height="16" fill="#2E2206"/><rect x="112" y="80" width="32" height="16" fill="#7FA860"/><rect x="144" y="80" width="32" height="16" fill="#2E2206"/><rect x="176" y="80" width="16" height="16" fill="#FFFBEA"/><rect x="192" y="80" width="16" height="16" fill="#7FA860"/><rect x="32" y="96" width="16" height="16" fill="#F2C044"/><rect x="48" y="96" width="16" height="16" fill="#7FA860"/><rect x="64" y="96" width="48" height="16" fill="#2E2206"/><rect x="112" y="96" width="32" height="16" fill="#7FA860"/><rect x="144" y="96" width="48" height="16" fill="#2E2206"/><rect x="192" y="96" width="16" height="16" fill="#7FA860"/><rect x="208" y="96" width="16" height="16" fill="#F2C044"/><rect x="32" y="112" width="32" height="16" fill="#F2C044"/><rect x="64" y="112" width="32" height="16" fill="#2E2206"/><rect x="96" y="112" width="16" height="16" fill="#FFFBEA"/><rect x="112" y="112" width="32" height="16" fill="#F2C044"/><rect x="144" y="112" width="16" height="16" fill="#FFFBEA"/><rect x="160" y="112" width="32" height="16" fill="#2E2206"/><rect x="192" y="112" width="32" height="16" fill="#F2C044"/><rect x="16" y="128" width="224" height="16" fill="#F2C044"/><rect x="16" y="144" width="224" height="16" fill="#F2C044"/><rect x="16" y="160" width="48" height="16" fill="#F2C044"/><rect x="64" y="160" width="128" height="16" fill="#7FA860"/><rect x="192" y="160" width="48" height="16" fill="#F2C044"/><rect x="32" y="176" width="32" height="16" fill="#F2C044"/><rect x="64" y="176" width="128" height="16" fill="#7FA860"/><rect x="192" y="176" width="32" height="16" fill="#F2C044"/><rect x="48" y="192" width="32" height="16" fill="#F2C044"/><rect x="112" y="192" width="32" height="16" fill="#7FA860"/><rect x="176" y="192" width="32" height="16" fill="#F2C044"/></g></svg>